<!DOCTYPE svg PUBLIC "-//W3C//DTD SVG 1.1//EN" "http://www.w3.org/Graphics/SVG/1.1/DTD/svg11.dtd">
<!-- Uploaded to: SVG Repo, www.svgrepo.com, Transformed by: SVG Repo Mixer Tools -->
<svg width="800px" height="800px" viewBox="0 0 32 32" xmlns="http://www.w3.org/2000/svg" fill="#000000">
<g id="SVGRepo_bgCarrier" stroke-width="0"/>
<g id="SVGRepo_tracerCarrier" stroke-linecap="round" stroke-linejoin="round"/>
<g id="SVGRepo_iconCarrier"> <defs> <style>.cls-1{fill:none;stroke:#000000;stroke-linecap:round;stroke-linejoin:round;stroke-width:2px;}</style> </defs> <title/> <g id="logout"> <line class="cls-1" x1="15.92" x2="28.92" y1="16" y2="16"/> <path d="M23.93,25v3h-16V4h16V7h2V3a1,1,0,0,0-1-1h-18a1,1,0,0,0-1,1V29a1,1,0,0,0,1,1h18a1,1,0,0,0,1-1V25Z"/> <line class="cls-1" x1="28.92" x2="24.92" y1="16" y2="20"/> <line class="cls-1" x1="28.92" x2="24.92" y1="16" y2="12"/> <line class="cls-1" x1="24.92" x2="24.92" y1="8.09" y2="6.09"/> <line class="cls-1" x1="24.92" x2="24.92" y1="26" y2="24"/> </g> </g>
</svg>