<svg width="146" height="49" viewBox="0 0 146 49" fill="none" xmlns="http://www.w3.org/2000/svg">
<path d="M118.782 48.6825C111.946 48.6825 106.382 43.1206 106.382 36.284C106.382 29.4473 111.944 23.8838 118.782 23.8838C125.617 23.8838 131.181 29.4457 131.181 36.284C131.181 43.1206 125.619 48.6825 118.782 48.6825ZM118.782 28.7261C114.614 28.7261 111.223 32.1178 111.223 36.2856C111.223 40.4534 114.614 43.8435 118.782 43.8435C122.95 43.8435 126.34 40.4534 126.34 36.2856C126.34 32.1178 122.95 28.7261 118.782 28.7261Z" fill="black"/>
<path d="M32.1731 48.6825C25.3365 48.6825 19.7745 43.1206 19.7745 36.284C19.7745 29.4473 25.3365 23.8838 32.1731 23.8838C39.0097 23.8838 44.5716 29.4457 44.5716 36.284C44.5716 43.1206 39.0097 48.6825 32.1731 48.6825ZM32.1731 28.7261C28.0053 28.7261 24.6152 32.1178 24.6152 36.2856C24.6152 40.4534 28.0053 43.8435 32.1731 43.8435C36.3409 43.8435 39.731 40.4534 39.731 36.2856C39.731 32.1178 36.3393 28.7261 32.1731 28.7261Z" fill="black"/>
<path d="M118.773 40.3129C117.725 40.3129 116.675 39.8934 115.933 39.1366C115.739 38.9591 115.578 38.7494 115.433 38.5235C115.287 38.296 115.158 38.0717 115.061 37.8281C114.95 37.5876 114.886 37.3278 114.821 37.0697C114.773 36.8115 114.756 36.5372 114.756 36.279C114.756 35.2157 115.176 34.1814 115.933 33.4392C116.869 32.4872 118.256 32.0531 119.563 32.3274C119.821 32.3742 120.08 32.4565 120.322 32.5533C120.564 32.6663 120.807 32.7792 121.017 32.9228C121.243 33.0697 121.453 33.2456 121.63 33.4392C122.389 34.1814 122.806 35.2157 122.806 36.279C122.806 36.5372 122.79 36.8115 122.726 37.0697C122.679 37.3278 122.597 37.586 122.5 37.8281C122.401 38.0701 122.274 38.296 122.129 38.5235C121.984 38.7494 121.824 38.9591 121.629 39.1366C120.888 39.895 119.839 40.3129 118.773 40.3129Z" fill="black"/>
<path d="M32.1748 40.3129C31.1098 40.3129 30.061 39.8773 29.3188 39.1367C28.5765 38.396 28.1409 37.3456 28.1409 36.279C28.1409 35.2157 28.5765 34.1814 29.3188 33.4231C30.8194 31.9225 33.5301 31.9225 35.0307 33.4231C35.773 34.1814 36.2086 35.2141 36.2086 36.279C36.2086 37.344 35.773 38.3783 35.0307 39.1367C34.2724 39.8789 33.2397 40.3129 32.1748 40.3129Z" fill="black"/>
<path d="M137.712 20.3485L100.009 12.7164L86.7274 5.01009C81.0783 1.73296 74.6402 0 68.1102 0H60.1796C60.1763 0 60.1731 0 60.1699 0H51.1146C44.1957 0 37.3058 1.70714 31.1872 4.93747L21.2364 10.1896C19.2582 11.2336 17.0299 11.787 14.7935 11.787H10.8161C6.89998 11.787 3.50828 14.5769 2.75153 18.4187L0.10207 31.8838C-0.449765 34.6882 1.28803 37.4345 4.05689 38.1364L18.4224 41.7814C17.7398 40.0807 17.3542 38.2283 17.3542 36.2872C17.3542 28.1162 24.002 21.4667 32.1731 21.4667C40.3441 21.4667 46.992 28.1146 46.992 36.2872C46.992 38.664 46.4159 40.9036 45.4171 42.8964H105.538C104.539 40.9036 103.963 38.664 103.963 36.2872C103.963 28.1162 110.611 21.4667 118.784 21.4667C126.953 21.4667 133.603 28.1146 133.603 36.2872C133.603 38.48 133.111 40.5567 132.252 42.4316L139.55 41.6394C142.781 41.286 145.22 38.5672 145.22 35.3143V29.5313C145.22 25.0908 142.063 21.2295 137.712 20.3485ZM40.3667 15.6967C36.8298 15.6967 33.4075 14.6527 30.4724 12.6761L28.8992 11.6176L33.4478 9.21662C38.8709 6.35256 44.9815 4.83905 51.1146 4.83905H58.2659L60.662 15.6967H40.3667ZM86.1094 15.6967H65.6172L63.2211 4.83905H68.1086C73.7867 4.83905 79.3841 6.34611 84.2957 9.19564L93.5769 14.5801C91.1598 15.3126 88.662 15.6967 86.1094 15.6967Z" fill="black"/>
</svg>
