<svg width="116" height="39" viewBox="0 0 116 39" fill="none" xmlns="http://www.w3.org/2000/svg">
<path d="M94.8816 38.8868C89.4206 38.8868 84.9766 34.444 84.9766 28.983C84.9766 23.522 89.4193 19.0779 94.8816 19.0779C100.341 19.0779 104.785 23.5207 104.785 28.983C104.785 34.444 100.343 38.8868 94.8816 38.8868ZM94.8816 22.9458C91.5525 22.9458 88.8432 25.6551 88.8432 28.9843C88.8432 32.3134 91.5525 35.0214 94.8816 35.0214C98.2108 35.0214 100.919 32.3134 100.919 28.9843C100.919 25.6551 98.2108 22.9458 94.8816 22.9458Z" fill="white"/>
<path d="M25.6994 38.8868C20.2384 38.8868 15.7957 34.444 15.7957 28.983C15.7957 23.522 20.2384 19.0779 25.6994 19.0779C31.1605 19.0779 35.6032 23.5207 35.6032 28.983C35.6032 34.444 31.1605 38.8868 25.6994 38.8868ZM25.6994 22.9458C22.3703 22.9458 19.6623 25.6551 19.6623 28.9843C19.6623 32.3134 22.3703 35.0214 25.6994 35.0214C29.0286 35.0214 31.7366 32.3134 31.7366 28.9843C31.7366 25.6551 29.0273 22.9458 25.6994 22.9458Z" fill="white"/>
<path d="M94.8739 32.2013C94.0374 32.2013 93.1984 31.8662 92.6055 31.2617C92.4508 31.1199 92.3219 30.9524 92.2059 30.7719C92.0899 30.5902 91.9868 30.411 91.9095 30.2164C91.8206 30.0244 91.769 29.8169 91.7175 29.6106C91.6788 29.4044 91.6659 29.1853 91.6659 28.9791C91.6659 28.1297 92.001 27.3035 92.6055 26.7106C93.353 25.9502 94.4615 25.6035 95.5055 25.8226C95.7117 25.86 95.9179 25.9257 96.1113 26.003C96.3046 26.0933 96.4992 26.1835 96.6668 26.2982C96.8472 26.4155 97.0148 26.556 97.1565 26.7106C97.7623 27.3035 98.0961 28.1297 98.0961 28.9791C98.0961 29.1853 98.0832 29.4044 98.0317 29.6106C97.9943 29.8169 97.9286 30.0231 97.8512 30.2164C97.7726 30.4097 97.6708 30.5902 97.5548 30.7719C97.4388 30.9524 97.3112 31.1199 97.1552 31.2617C96.5637 31.8675 95.7259 32.2013 94.8739 32.2013Z" fill="white"/>
<path d="M25.7007 32.2014C24.8501 32.2014 24.0123 31.8534 23.4194 31.2618C22.8265 30.6702 22.4785 29.8311 22.4785 28.9791C22.4785 28.1298 22.8265 27.3036 23.4194 26.6978C24.6181 25.4992 26.7834 25.4992 27.9821 26.6978C28.5749 27.3036 28.9229 28.1285 28.9229 28.9791C28.9229 29.8298 28.5749 30.656 27.9821 31.2618C27.3763 31.8547 26.5514 32.2014 25.7007 32.2014Z" fill="white"/>
<path d="M110.003 16.2541L79.8854 10.1577L69.2766 4.00199C64.7642 1.38426 59.6216 0 54.4055 0H48.0706C48.068 0 48.0654 0 48.0629 0H40.8296C35.3029 0 29.7994 1.36364 24.9119 3.94399L16.9634 8.13931C15.3832 8.97322 13.6032 9.41531 11.8168 9.41531H8.63973C5.51161 9.41531 2.80237 11.6438 2.19788 14.7126L0.0815323 25.4684C-0.359266 27.7085 1.02886 29.9021 3.24059 30.4628L14.7155 33.3744C14.1703 32.0159 13.8623 30.5363 13.8623 28.9857C13.8623 22.4588 19.1725 17.1473 25.6994 17.1473C32.2263 17.1473 37.5365 22.4575 37.5365 28.9857C37.5365 30.8843 37.0764 32.6732 36.2786 34.265H84.3024C83.5046 32.6732 83.0445 30.8843 83.0445 28.9857C83.0445 22.4588 88.3547 17.1473 94.8829 17.1473C101.409 17.1473 106.72 22.4575 106.72 28.9857C106.72 30.7373 106.327 32.3961 105.641 33.8938L111.471 33.261C114.051 32.9787 116 30.8069 116 28.2085V23.5892C116 20.0422 113.478 16.9579 110.003 16.2541ZM32.2444 12.5383C29.4191 12.5383 26.6854 11.7044 24.3409 10.1255L23.0843 9.27998L26.7176 7.36211C31.0496 5.07434 35.9306 3.86537 40.8296 3.86537H46.542L48.456 12.5383H32.2444ZM68.783 12.5383H52.4141L50.5001 3.86537H54.4042C58.9398 3.86537 63.4109 5.06918 67.3343 7.34535L74.7479 11.6464C72.8172 12.2315 70.822 12.5383 68.783 12.5383Z" fill="white"/>
</svg>
